<?xml version="1.0" encoding="iso-8859-1"?>
<!-- Generator: Adobe Illustrator 20.1.0, SVG Export Plug-In . SVG Version: 6.00 Build 0)  -->
<svg xmlns="http://www.w3.org/2000/svg" xmlns:xlink="http://www.w3.org/1999/xlink" version="1.1" id="&#1057;&#1083;&#1086;&#1081;_1" x="0px" y="0px" viewBox="0 0 64 64" style="enable-background:new 0 0 64 64;" xml:space="preserve">
<linearGradient id="SVGID_1__43999" gradientUnits="userSpaceOnUse" x1="26" y1="23.1667" x2="26" y2="34.6679" spreadMethod="reflect">
	<stop offset="0" style="stop-color:#6DC7FF"/>
	<stop offset="1" style="stop-color:#E6ABFF"/>
</linearGradient>
<path style="fill:url(#SVGID_1__43999);" d="M15.083,25.762l9.623,8.142c0.747,0.632,1.842,0.632,2.589,0l9.623-8.142  C37.628,25.161,37.203,24,36.271,24H15.729C14.797,24,14.372,25.161,15.083,25.762z"/>
<linearGradient id="SVGID_2__43999" gradientUnits="userSpaceOnUse" x1="32" y1="6.5" x2="32" y2="57.5612" spreadMethod="reflect">
	<stop offset="0" style="stop-color:#1A6DFF"/>
	<stop offset="1" style="stop-color:#C822FF"/>
</linearGradient>
<path style="fill:url(#SVGID_2__43999);" d="M54.619,15.886c-1.03-0.448-2.537-0.81-4.241-0.81c-5.509,0-9.393,4.172-9.393,8.804  c0,2.952,1.981,4.607,4.28,4.607c2.378,0,4.202-1.487,5.589-3.487h0.158c-0.119,2,1.348,3.487,2.933,3.487  c3.726,0,7.055-3.088,7.055-8.691C61,13.558,56.363,9,49.467,9c-7.08,0-12.127,4.309-13.83,10H8c-2.757,0-5,2.243-5,5v26  c0,2.757,2.243,5,5,5h36c2.757,0,5-2.243,5-5V34.91c1.816-0.171,3.452-0.603,5.064-1.404l-0.634-1.606  c-1.625,0.859-3.726,1.308-5.985,1.308c-5.866,0-10.186-3.849-10.186-10.087c0-7.583,5.43-12.403,11.89-12.403  c6.143,0,9.592,3.883,9.592,9.301c0,4.333-2.26,6.871-4.281,6.833c-1.308-0.037-1.784-1.351-1.189-4.19L54.619,15.886z M8,21h27.194  C35.075,21.768,35,22.548,35,23.345c0,2.521,0.692,4.701,1.857,6.48L27.9,37.153c-1.102,0.9-2.699,0.9-3.801,0l-18.4-15.055  C6.25,21.433,7.071,21,8,21z M17.087,34L5,43.89V24.11L17.087,34z M44,53H8c-1.654,0-3-1.346-3-3v-3.526l13.667-11.182l4.167,3.41  c0.917,0.75,2.041,1.125,3.166,1.125c1.124,0,2.249-0.375,3.166-1.125l4.168-3.41L47,46.474V50C47,51.654,45.654,53,44,53z M47,35  v8.89L34.913,34l3.191-2.611C40.321,33.695,43.513,34.997,47,35z M51.052,21.59c-0.436,2.316-2.537,5.08-4.835,5.08  c-1.744,0-2.616-1.195-2.616-2.839c0-3.624,2.814-6.724,6.302-6.724c0.912,0,1.586,0.15,1.982,0.262L51.052,21.59z"/>
<linearGradient id="SVGID_3__43999" gradientUnits="userSpaceOnUse" x1="26" y1="6.5" x2="26" y2="57.5612" spreadMethod="reflect">
	<stop offset="0" style="stop-color:#1A6DFF"/>
	<stop offset="1" style="stop-color:#C822FF"/>
</linearGradient>
<rect x="18" y="49" style="fill:url(#SVGID_3__43999);" width="16" height="2"/>
</svg>
