<?xml version="1.0" encoding="iso-8859-1"?>
<!-- Generator: Adobe Illustrator 20.1.0, SVG Export Plug-In . SVG Version: 6.00 Build 0)  -->
<svg xmlns="http://www.w3.org/2000/svg" xmlns:xlink="http://www.w3.org/1999/xlink" version="1.1" id="&#1057;&#1083;&#1086;&#1081;_1" x="0px" y="0px" viewBox="0 0 64 64" style="enable-background:new 0 0 64 64;" xml:space="preserve">
<linearGradient id="SVGID_1__44019" gradientUnits="userSpaceOnUse" x1="19" y1="24.8581" x2="19" y2="49.0415" spreadMethod="reflect">
	<stop offset="0" style="stop-color:#6DC7FF"/>
	<stop offset="1" style="stop-color:#E6ABFF"/>
</linearGradient>
<polygon style="fill-rule:evenodd;clip-rule:evenodd;fill:url(#SVGID_1__44019);" points="22,48 22,26 16,26 16,48 22,48 "/>
<linearGradient id="SVGID_2__44019" gradientUnits="userSpaceOnUse" x1="19.3817" y1="15.4226" x2="19.3817" y2="23.341" spreadMethod="reflect">
	<stop offset="0" style="stop-color:#6DC7FF"/>
	<stop offset="1" style="stop-color:#E6ABFF"/>
</linearGradient>
<path style="fill-rule:evenodd;clip-rule:evenodd;fill:url(#SVGID_2__44019);" d="M19.358,23c2.512,0,4.076-1.474,4.076-3.554  c-0.047-2.126-1.564-3.649-4.028-3.649c-2.465,0-4.076,1.475-4.076,3.601c0,2.08,1.563,3.602,3.981,3.602H19.358L19.358,23z"/>
<linearGradient id="SVGID_3__44019" gradientUnits="userSpaceOnUse" x1="37.3855" y1="14.125" x2="37.3855" y2="49.5245" spreadMethod="reflect">
	<stop offset="0" style="stop-color:#6DC7FF"/>
	<stop offset="1" style="stop-color:#E6ABFF"/>
</linearGradient>
<path style="fill-rule:evenodd;clip-rule:evenodd;fill:url(#SVGID_3__44019);" d="M26.946,48H34V35.911c0-0.648,0.122-1.295,0.313-1.758  c0.52-1.295,1.877-2.635,3.867-2.635c2.607,0,3.821,1.988,3.821,4.901V48h6V35.588c0-6.657-3.085-9.498-7.826-9.498  c-3.886,0-5.124,1.91-6.072,3.91H34v-4h-7.054c0.095,2-0.175,22-0.175,22H26.946z"/>
<linearGradient id="SVGID_4__44019" gradientUnits="userSpaceOnUse" x1="32" y1="6.5" x2="32" y2="57.5003" spreadMethod="reflect">
	<stop offset="0" style="stop-color:#1A6DFF"/>
	<stop offset="1" style="stop-color:#C822FF"/>
</linearGradient>
<path style="fill:url(#SVGID_4__44019);" d="M50,57H14c-3.859,0-7-3.141-7-7V14c0-3.859,3.141-7,7-7h36c3.859,0,7,3.141,7,7v36  C57,53.859,53.859,57,50,57z M14,9c-2.757,0-5,2.243-5,5v36c0,2.757,2.243,5,5,5h36c2.757,0,5-2.243,5-5V14c0-2.757-2.243-5-5-5H14z  "/>
</svg>
